<?xml version="1.0" encoding="UTF-8" standalone="no"?>
<!-- Generator: Adobe Illustrator 26.0.1, SVG Export Plug-In . SVG Version: 6.00 Build 0)  -->

<svg
   version="1.1"
   id="Ebene_1"
   x="0px"
   y="0px"
   viewBox="0 0 523.86999 243.63999"
   xml:space="preserve"
   sodipodi:docname="mnt_light.svg"
   width="523.87"
   height="243.64"
   inkscape:version="1.2.2 (b0a8486541, 2022-12-01)"
   xmlns:inkscape="http://www.inkscape.org/namespaces/inkscape"
   xmlns:sodipodi="http://sodipodi.sourceforge.net/DTD/sodipodi-0.dtd"
   xmlns="http://www.w3.org/2000/svg"
   xmlns:svg="http://www.w3.org/2000/svg"><defs
   id="defs67" /><sodipodi:namedview
   id="namedview65"
   pagecolor="#ffffff"
   bordercolor="#666666"
   borderopacity="1.0"
   inkscape:showpageshadow="2"
   inkscape:pageopacity="0.0"
   inkscape:pagecheckerboard="0"
   inkscape:deskcolor="#d1d1d1"
   showgrid="false"
   inkscape:zoom="1.8463296"
   inkscape:cx="268.37028"
   inkscape:cy="122.1342"
   inkscape:window-width="1920"
   inkscape:window-height="1000"
   inkscape:window-x="0"
   inkscape:window-y="0"
   inkscape:window-maximized="1"
   inkscape:current-layer="Ebene_1" />
<style
   type="text/css"
   id="style2">
	.st0{fill:#FFFFFF;}
	.st1{fill:#046FB7;}
	.st2{fill:#3D3D3C;}
</style>
<polygon
   class="st0"
   points="541.99,195.39 541.99,179.2 533.59,179.2 533.59,224.1 541.99,224.1 541.99,203.79 570.06,203.79 570.06,224.1 578.46,224.1 578.46,179.2 570.06,179.2 570.06,195.39 "
   id="polygon4"
   transform="translate(-54.59,-79.77)" />
<polygon
   class="st0"
   points="360.16,187.6 378.36,187.6 378.36,224.1 386.76,224.1 386.76,187.6 404.95,187.6 404.95,179.2 360.16,179.2 "
   id="polygon6"
   transform="translate(-54.59,-79.77)" />
<polygon
   class="st0"
   points="252.97,185.33 244.57,178.84 244.57,189.45 244.57,224.1 252.97,224.1 252.97,195.94 281.03,217.61 289.43,224.1 289.43,213.49 289.43,179.2 281.03,179.2 281.03,207 "
   id="polygon8"
   transform="translate(-54.59,-79.77)" />
<polygon
   class="st0"
   points="140.31,185.33 131.91,178.84 131.91,189.45 131.91,224.1 140.31,224.1 140.31,195.94 168.38,217.61 176.78,224.1 176.78,213.49 176.78,179.2 168.38,179.2 168.38,207 "
   id="polygon10"
   transform="translate(-54.59,-79.77)" />
<path
   class="st0"
   d="m 273.16,146.08 c -13.34,0 -24.2,-10.86 -24.2,-24.2 0,-13.34 10.86,-24.2 24.2,-24.2 13.34,0 24.2,10.86 24.2,24.2 0,13.34 -10.85,24.2 -24.2,24.2 z m 0,-40 c -8.71,0 -15.8,7.09 -15.8,15.8 0,8.71 7.09,15.8 15.8,15.8 8.71,0 15.8,-7.09 15.8,-15.8 0,-8.71 -7.09,-15.8 -15.8,-15.8 z"
   id="path12" />
<g
   id="g18"
   transform="translate(-54.59,-79.77)">
	<path
   class="st0"
   d="m 518.85,201.59 v 0.12 c 0,-0.02 0,-0.04 0,-0.06 0,-0.02 0,-0.04 0,-0.06 z"
   id="path14" />
	<path
   class="st0"
   d="m 496.4,215.7 c -7.75,0 -14.05,-6.3 -14.05,-14.05 0,-7.75 6.3,-14.05 14.05,-14.05 v 0 h 17.49 4.96 v -8.4 h -22.44 c 0,0 -0.01,0 -0.01,0 -12.38,0 -22.45,10.07 -22.45,22.45 0,12.38 10.07,22.45 22.45,22.45 0,0 0.01,0 0.01,0 h 22.43 v -8.4 h -4.96 z"
   id="path16" />
</g>
<path
   class="st0"
   d="m 374.47,107.83 h 31.44 v -8.4 h -31.44 c -7.02,0 -12.74,5.71 -12.74,12.74 v 19.42 c 0,7.02 5.71,12.74 12.74,12.74 h 31.44 v -8.4 h -31.44 c -2.39,0 -4.34,-1.95 -4.34,-4.34 v -5.51 h 27.93 v -8.4 h -27.93 v -5.51 c 0,-2.39 1.95,-4.34 4.34,-4.34 z"
   id="path20" />
<g
   id="g42"
   transform="translate(-54.59,-79.77)">
	<rect
   x="403.12"
   y="132.28999"
   class="st1"
   width="3.79"
   height="20.24"
   id="rect22" />
	<polygon
   class="st1"
   points="380,135.05 376.21,132.13 376.21,136.92 376.21,152.54 380,152.54 380,139.84 392.65,149.61 396.44,152.54 396.44,147.75 396.44,132.29 392.65,132.29 392.65,144.83 "
   id="polygon24" />
	<polygon
   class="st1"
   points="444.06,139.59 444.06,132.29 440.27,132.29 440.27,152.54 444.06,152.54 444.06,143.38 456.72,143.38 456.72,152.54 460.51,152.54 460.51,132.29 456.72,132.29 456.72,139.59 "
   id="polygon26" />
	<g
   id="g32">
		<path
   class="st1"
   d="m 433.63,142.39 v 0.06 c 0,-0.01 0,-0.02 0,-0.03 0,-0.01 0,-0.02 0,-0.03 z"
   id="path28" />
		<path
   class="st1"
   d="m 423.51,148.75 c -3.49,0 -6.33,-2.84 -6.33,-6.33 0,-3.49 2.84,-6.33 6.33,-6.33 v 0 h 7.89 2.23 v -3.79 h -10.12 c 0,0 0,0 -0.01,0 -5.58,0 -10.12,4.54 -10.12,10.12 0,5.58 4.54,10.12 10.12,10.12 0,0 0,0 0.01,0 h 10.12 v -3.79 h -2.23 z"
   id="path30" />
	</g>
	<g
   id="g38">
		<path
   class="st1"
   d="m 359.38,132.29 h 0.06 c -0.01,0 -0.02,0 -0.03,0 -0.01,0 -0.02,0 -0.03,0 z"
   id="path34" />
		<path
   class="st1"
   d="m 365.74,142.42 c 0,3.49 -2.84,6.33 -6.33,6.33 -3.49,0 -6.33,-2.84 -6.33,-6.33 v 0 -7.89 -2.23 h -3.79 v 10.12 c 0,0 0,0 0,0.01 0,5.58 4.54,10.12 10.12,10.12 5.58,0 10.12,-4.54 10.12,-10.12 0,0 0,0 0,-0.01 V 132.3 h -3.79 v 2.23 z"
   id="path36" />
	</g>
	<polygon
   class="st1"
   points="338.87,135.05 332.54,139.94 326.21,135.05 326.21,135.05 322.63,132.29 322.42,132.13 322.42,132.29 322.42,136.92 322.42,147.75 322.42,152.54 322.42,152.54 322.42,152.54 326.21,152.54 326.21,149.61 326.21,144.83 326.21,139.84 329.44,142.33 332.54,144.73 335.64,142.33 338.87,139.84 338.87,144.83 338.87,149.61 338.87,152.54 342.65,152.54 342.65,152.54 342.65,152.54 342.65,147.75 342.65,136.92 342.65,132.29 342.65,132.13 342.44,132.29 338.87,135.05 "
   id="polygon40" />
</g>
<polygon
   class="st0"
   points="223.08,224.1 232.51,224.1 214.13,188.08 209.42,178.84 204.7,188.08 186.33,224.1 195.76,224.1 209.42,197.32 "
   id="polygon44"
   transform="translate(-54.59,-79.77)" />
<g
   id="g60"
   transform="translate(-54.59,-79.77)">
	<polygon
   class="st1"
   points="191.29,256.94 205.5,256.94 205.5,285.45 212.06,285.45 212.06,256.94 226.27,256.94 226.27,250.38 191.29,250.38 "
   id="polygon46" />
	<polygon
   class="st1"
   points="425.51,256.94 439.73,256.94 439.73,285.45 446.29,285.45 446.29,256.94 460.5,256.94 460.5,250.38 425.51,250.38 "
   id="polygon48" />
	<path
   class="st1"
   d="m 249.9,286.81 c -10.42,0 -18.9,-8.48 -18.9,-18.9 0,-10.42 8.48,-18.9 18.9,-18.9 10.42,0 18.9,8.48 18.9,18.9 0,10.42 -8.47,18.9 -18.9,18.9 z m 0,-31.24 c -6.8,0 -12.34,5.54 -12.34,12.34 0,6.8 5.54,12.34 12.34,12.34 6.8,0 12.34,-5.54 12.34,-12.34 0,-6.8 -5.53,-12.34 -12.34,-12.34 z"
   id="path50" />
	<path
   class="st1"
   d="m 295.58,286.81 c -10.42,0 -18.9,-8.48 -18.9,-18.9 0,-10.42 8.48,-18.9 18.9,-18.9 10.42,0 18.9,8.48 18.9,18.9 0,10.42 -8.47,18.9 -18.9,18.9 z m 0,-31.24 c -6.8,0 -12.34,5.54 -12.34,12.34 0,6.8 5.54,12.34 12.34,12.34 6.8,0 12.34,-5.54 12.34,-12.34 0,-6.8 -5.53,-12.34 -12.34,-12.34 z"
   id="path52" />
	<rect
   x="409"
   y="250.38"
   class="st1"
   width="6.5599999"
   height="35.07"
   id="rect54" />
	<path
   class="st1"
   d="m 331.09,275.5 v -25.12 h -6.56 v 25.12 c 0,5.49 4.46,9.95 9.95,9.95 h 18.69 v -6.56 h -18.69 c -1.87,-0.01 -3.39,-1.53 -3.39,-3.39 z"
   id="path56" />
	<polygon
   class="st1"
   points="396.59,250.38 386.91,250.38 367.85,267.94 367.85,250.38 361.29,250.38 361.29,285.45 367.85,285.45 367.85,276.86 376.62,268.78 388.53,285.45 396.59,285.45 381.48,264.3 "
   id="polygon58" />
</g>
<path
   class="st1"
   d="M 260.56,94.24 227.25,41.99 c 4.8,-4.43 7.82,-10.76 7.82,-17.79 C 235.07,10.86 224.21,0 210.87,0 198.96,0 189.04,8.65 187.04,20 H 110.26 C 108.26,8.65 98.34,0 86.43,0 73.09,0 62.23,10.86 62.23,24.2 c 0,7.05 3.03,13.4 7.86,17.83 L 33.47,99.47 C 30.61,98.28 27.48,97.62 24.2,97.62 10.86,97.62 0,108.48 0,121.82 c 0,13.34 10.86,24.2 24.2,24.2 3.28,0 6.41,-0.66 9.27,-1.85 l 36.62,57.44 c -4.83,4.43 -7.86,10.78 -7.86,17.83 0,13.34 10.86,24.2 24.2,24.2 13.34,0 24.2,-10.86 24.2,-24.2 0,-13.34 -10.86,-24.2 -24.2,-24.2 -3.28,0 -6.41,0.66 -9.27,1.85 L 40.54,139.65 c 4.82,-4.43 7.85,-10.78 7.85,-17.83 0,-7.05 -3.03,-13.4 -7.85,-17.83 L 77.16,46.55 c 2.86,1.19 5.98,1.85 9.27,1.85 11.91,0 21.83,-8.65 23.83,-20 h 76.78 c 2,11.35 11.92,20 23.83,20 3.3,0 6.44,-0.67 9.31,-1.87 l 33.3,52.23 c 2.13,-1.81 4.51,-3.34 7.08,-4.52 z m -158.33,125.2 c 0,8.71 -7.09,15.8 -15.8,15.8 -8.71,0 -15.8,-7.09 -15.8,-15.8 0,-8.71 7.09,-15.8 15.8,-15.8 8.71,0 15.8,7.09 15.8,15.8 z M 8.4,121.82 c 0,-8.71 7.09,-15.8 15.8,-15.8 8.71,0 15.8,7.09 15.8,15.8 0,8.71 -7.09,15.8 -15.8,15.8 -8.71,0 -15.8,-7.09 -15.8,-15.8 z M 86.43,40 c -8.71,0 -15.8,-7.09 -15.8,-15.8 0,-8.71 7.09,-15.8 15.8,-15.8 8.71,0 15.8,7.09 15.8,15.8 0,8.71 -7.09,15.8 -15.8,15.8 z M 195.07,24.2 c 0,-8.71 7.09,-15.8 15.8,-15.8 8.71,0 15.8,7.09 15.8,15.8 0,8.71 -7.09,15.8 -15.8,15.8 -8.71,0 -15.8,-7.09 -15.8,-15.8 z"
   id="path62" />
</svg>
